# xmcd
#
# Track frame offsets: 
#        150
#        11290
#        25179
#        40134
#        55497
#        58271
#        74044
#        94295
#        104176
#        116957
#        132246
#        148641
#        160172
#
# Disc length: 2299 seconds
#
# Revision: 0
# Processed by: cddbd v1.4PL0 Copyright (c) Steve Scherf et al.
# Submitted via: ExactAudioCopy v0.90b3
#
DISCID=c608f90d
DTITLE=Great Northern - Low Lonesome
DYEAR=1999
DGENRE=Bluegrass
TTITLE0=Crazy Heart
TTITLE1=Hooligan Grease
TTITLE2=Sound Of Poor Hearts Breaking
TTITLE3=Railroad Worksong
TTITLE4=Temperance Reel Intro
TTITLE5=Temperance Reel
TTITLE6=Still In Love With You
TTITLE7=Just One Time
TTITLE8=Streamline Cannonball
TTITLE9=Katie On The Jumperoo
TTITLE10=Sweeter Love
TTITLE11=Hold Whatcha Got
TTITLE12=Walkin' The Dog
EXTD=
EXTT0=
EXTT1=
EXTT2=
EXTT3=
EXTT4=
EXTT5=
EXTT6=
EXTT7=
EXTT8=
EXTT9=
EXTT10=
EXTT11=
EXTT12=
PLAYORDER=
